<?xml version="1.0" encoding="UTF-8" standalone="no"?>
<!-- Created with Inkscape (http://www.inkscape.org/) -->

<svg
   xmlns:dc="http://purl.org/dc/elements/1.1/"
   xmlns:cc="http://creativecommons.org/ns#"
   xmlns:rdf="http://www.w3.org/1999/02/22-rdf-syntax-ns#"
   xmlns:svg="http://www.w3.org/2000/svg"
   xmlns="http://www.w3.org/2000/svg"
   xmlns:sodipodi="http://sodipodi.sourceforge.net/DTD/sodipodi-0.dtd"
   xmlns:inkscape="http://www.inkscape.org/namespaces/inkscape"
   width="128"
   height="128"
   viewBox="0 0 33.866668 33.866667"
   version="1.1"
   id="svg8"
   style="enable-background:new"
   inkscape:version="0.92.2 (5c3e80d, 2017-08-06)"
   sodipodi:docname="logo.svg">
  <defs
     id="defs2">
    <filter
       inkscape:collect="always"
       style="color-interpolation-filters:sRGB"
       id="filter4625">
      <feBlend
         inkscape:collect="always"
         mode="luminosity"
         in2="BackgroundImage"
         id="feBlend4627" />
    </filter>
  </defs>
  <sodipodi:namedview
     id="base"
     pagecolor="#ffffff"
     bordercolor="#666666"
     borderopacity="1.0"
     inkscape:pageopacity="0.0"
     inkscape:pageshadow="2"
     inkscape:zoom="2.8"
     inkscape:cx="65.335773"
     inkscape:cy="33.293799"
     inkscape:document-units="mm"
     inkscape:current-layer="layer1"
     showgrid="false"
     showguides="false"
     fit-margin-top="0"
     fit-margin-left="0"
     fit-margin-right="0"
     fit-margin-bottom="0"
     inkscape:window-width="1280"
     inkscape:window-height="756"
     inkscape:window-x="0"
     inkscape:window-y="22"
     inkscape:window-maximized="0"
     units="px" />
  <metadata
     id="metadata5">
    <rdf:RDF>
      <cc:Work
         rdf:about="">
        <dc:format>image/svg+xml</dc:format>
        <dc:type
           rdf:resource="http://purl.org/dc/dcmitype/StillImage" />
        <dc:title></dc:title>
      </cc:Work>
    </rdf:RDF>
  </metadata>
  <g
     inkscape:label="Layer 1"
     inkscape:groupmode="layer"
     id="layer1"
     style="display:inline;filter:url(#filter4625)"
     transform="translate(-58.580919,-135.61187)">
    <path
       sodipodi:nodetypes="ccccc"
       inkscape:connector-curvature="0"
       id="path5132"
       d="m 75.514253,135.61194 c -9.352029,-2e-5 -16.933354,7.58131 -16.933333,16.93333 6.2e-5,9.35198 7.581361,16.93321 16.933333,16.93319 9.351973,2e-5 16.933272,-7.58121 16.933332,-16.93319 2.3e-5,-9.35202 -7.581301,-16.93335 -16.933332,-16.93333 z"
       style="fill:#00ffff;fill-opacity:1;stroke:none;stroke-width:0.07271968;stroke-miterlimit:4;stroke-dasharray:none;stroke-opacity:1" />
    <path
       style="fill:#000080;fill-opacity:1;stroke:none;stroke-width:0.07271968;stroke-miterlimit:4;stroke-dasharray:none;stroke-opacity:1"
       d="m 75.514252,135.61194 c -9.352029,-2e-5 -16.933354,7.58131 -16.933333,16.93334 6.2e-5,9.35197 7.581361,16.9332 16.933333,16.93318 9.351974,2e-5 16.933273,-7.58121 16.933334,-16.93318 2.2e-5,-9.35203 -7.581303,-16.93336 -16.933334,-16.93334 z m 0.217289,7.92581 c 2.180387,0.009 4.394965,0.2923 7.019378,0.91028 2.758905,0.65657 5.267453,2.16475 6.174183,3.71197 0.385903,0.65849 0.402315,1.40735 0.03935,1.79393 -0.691907,0.73691 -2.405685,0.85958 -4.713951,0.33725 -1.862723,-0.42151 -2.740944,-0.39252 -3.766398,0.12425 -1.640275,0.8266 -2.461659,2.82692 -1.770413,4.31132 0.48327,1.03777 1.182138,1.4643 3.802785,2.32096 2.203236,0.72021 2.999,1.10723 3.695546,1.79748 0.49846,0.49395 0.5661,0.61691 0.632787,1.15064 0.344654,2.7585 -2.784273,5.58426 -7.523329,6.79425 -1.704681,0.43524 -3.664616,0.6147 -5.081671,0.46549 -0.208266,-0.0219 -0.902331,-0.13732 -1.542326,-0.25648 -4.175361,-0.77746 -7.521919,-2.94933 -8.38228,-5.43993 -0.08549,-0.24749 -0.152453,-0.78653 -0.148804,-1.19783 0.0055,-0.61962 0.05416,-0.81631 0.283704,-1.14753 0.571183,-0.82422 1.477963,-1.31503 3.916681,-2.12009 2.157473,-0.71222 2.879178,-1.06533 3.455477,-1.69054 0.786476,-0.85322 0.955263,-2.02038 0.450849,-3.11778 -0.89555,-1.94838 -2.767536,-2.68725 -5.230475,-2.06462 -2.483988,0.62795 -4.398865,0.52042 -5.030344,-0.28237 -0.277426,-0.3527 -0.281511,-1.09426 -0.009,-1.62709 0.876782,-1.71446 3.598895,-3.30496 6.913765,-4.03974 2.487931,-0.47801 4.634127,-0.74294 6.814513,-0.73382 z m -7.85614,8.09814 c 1.399127,0 2.526265,1.13685 2.526265,2.52626 v 0.01 c 0,0.23318 -0.262443,0.37895 -0.456766,0.25264 -0.602402,-0.37893 -1.311538,-0.59265 -2.079114,-0.58294 -0.757861,0 -1.457484,0.21372 -2.059886,0.58294 -0.194323,0.11659 -0.456617,-0.0195 -0.456617,-0.25264 v -0.01 c 0,-1.39913 1.136706,-2.52626 2.526118,-2.52626 z m 15.277703,0 c 1.399127,0 2.526118,1.13685 2.526118,2.52626 v 0.01 c 0,0.23318 -0.262295,0.37895 -0.456618,0.25264 -0.602401,-0.37893 -1.301969,-0.59267 -2.079262,-0.58294 -0.757861,0 -1.457334,0.21372 -2.059738,0.58294 -0.194319,0.11659 -0.456766,-0.0195 -0.456766,-0.25264 v -0.01 c 0,-1.39913 1.136854,-2.52626 2.526266,-2.52626 z m -7.638852,4.20911 c -1.456454,0 -3.091603,0.57488 -3.091603,2.03133 0,1.45646 1.635149,2.59919 3.091603,2.59919 1.456451,0 3.091603,-1.14273 3.091603,-2.59919 0,-1.45645 -1.635152,-2.03133 -3.091603,-2.03133 z m -6.207316,4.74205 c -0.186493,0.007 -0.370146,0.0842 -0.506466,0.23194 -0.27264,0.29535 -0.257493,0.75745 0.03787,1.03009 1.810024,1.68127 4.271415,2.64297 6.763038,2.64297 2.438613,0 4.771195,-0.87839 6.588793,-2.49151 0.295361,-0.27264 0.325563,-0.72715 0.0605,-1.03009 -0.27264,-0.29536 -0.727011,-0.32556 -1.029943,-0.0605 -1.514666,1.34806 -3.566976,2.12053 -5.619348,2.12053 -2.128104,0 -4.233579,-0.818 -5.770962,-2.24936 -0.14768,-0.13632 -0.336984,-0.20069 -0.523477,-0.19407 z"
       id="path4936"
       inkscape:connector-curvature="0"
       sodipodi:nodetypes="cccccsccccscsscsccssscsccsscsssscccsssssscccsssssssscccscccscc" />
  </g>
  <g
     inkscape:groupmode="layer"
     id="layer2"
     inkscape:label="Layer 2"
     transform="translate(-58.580919,-135.61187)" />
  <style
     id="style5024"
     type="text/css">
	.st0{fill:#FFCE06;}
	.st1{fill:#221F1F;}
</style>
</svg>
