<?xml version="1.0" encoding="UTF-8" standalone="no"?>
<svg
   width="1200"
   height="900"
   viewBox="0 0 1200 900"
   version="1.1"
   id="svg43"
   sodipodi:docname="screenshot.svg"
   inkscape:version="1.4 (e7c3feb1, 2024-10-09)"
   xmlns:inkscape="http://www.inkscape.org/namespaces/inkscape"
   xmlns:sodipodi="http://sodipodi.sourceforge.net/DTD/sodipodi-0.dtd"
   xmlns="http://www.w3.org/2000/svg"
   xmlns:svg="http://www.w3.org/2000/svg">
  <sodipodi:namedview
     id="namedview43"
     pagecolor="#ffffff"
     bordercolor="#000000"
     borderopacity="0.25"
     inkscape:showpageshadow="2"
     inkscape:pageopacity="0.0"
     inkscape:pagecheckerboard="0"
     inkscape:deskcolor="#d1d1d1"
     inkscape:zoom="0.40727448"
     inkscape:cx="547.54229"
     inkscape:cy="608.92596"
     inkscape:window-width="1512"
     inkscape:window-height="921"
     inkscape:window-x="530"
     inkscape:window-y="1141"
     inkscape:window-maximized="0"
     inkscape:current-layer="svg43" />
  <defs
     id="defs4">
    <linearGradient
       id="bg"
       x1="0"
       y1="0"
       x2="1"
       y2="1">
      <stop
         offset="0%"
         stop-color="#0f1923"
         id="stop1" />
      <stop
         offset="100%"
         stop-color="#1a2d3d"
         id="stop2" />
    </linearGradient>
    <linearGradient
       id="banner"
       x1="0"
       y1="0"
       x2="0"
       y2="1">
      <stop
         offset="0%"
         stop-color="#000000"
         stop-opacity="0"
         id="stop3" />
      <stop
         offset="100%"
         stop-color="#000000"
         stop-opacity="0.72"
         id="stop4" />
    </linearGradient>
  </defs>
  <path
     id="rect43"
     style="opacity:1;fill:#ffffff;stroke-width:81.8791;stroke-linecap:round;stroke-miterlimit:42.7;paint-order:stroke markers fill"
     d="M 0,0 H 1200 V 900 H 0 Z" />
  <!-- Background -->
  <rect
     width="1200"
     height="900"
     fill="url(#bg)"
     id="rect4" />
  <!-- Subtle grid texture -->
  <g
     stroke="#ffffff"
     stroke-opacity="0.03"
     stroke-width="1"
     id="g15">
    <line
       x1="0"
       y1="150"
       x2="1200"
       y2="150"
       id="line4" />
    <line
       x1="0"
       y1="300"
       x2="1200"
       y2="300"
       id="line5" />
    <line
       x1="0"
       y1="450"
       x2="1200"
       y2="450"
       id="line6" />
    <line
       x1="0"
       y1="600"
       x2="1200"
       y2="600"
       id="line7" />
    <line
       x1="0"
       y1="750"
       x2="1200"
       y2="750"
       id="line8" />
    <line
       x1="150"
       y1="0"
       x2="150"
       y2="900"
       id="line9" />
    <line
       x1="300"
       y1="0"
       x2="300"
       y2="900"
       id="line10" />
    <line
       x1="450"
       y1="0"
       x2="450"
       y2="900"
       id="line11" />
    <line
       x1="600"
       y1="0"
       x2="600"
       y2="900"
       id="line12" />
    <line
       x1="750"
       y1="0"
       x2="750"
       y2="900"
       id="line13" />
    <line
       x1="900"
       y1="0"
       x2="900"
       y2="900"
       id="line14" />
    <line
       x1="1050"
       y1="0"
       x2="1050"
       y2="900"
       id="line15" />
  </g>
  <!-- Sloth logo group, centered, scaled up from original 317x238 viewBox -->
  <!-- Original paths from sloth-logo.svg, scaled ~2.8x and centered -->
  <g
     transform="translate(262, 55) scale(2.13)"
     id="g40">
    <g
       transform="translate(14.611571,-40.983501)"
       id="g39">
      <g
         transform="translate(42.297774,27.86434)"
         id="g38">
        <!-- White shadow/outline base -->
        <path
           style="fill:#ffffff;fill-opacity:0.08;stroke:none"
           d="m 109.87695,40.988256 c -5.13868,-0.0212 -9.81079,4.335387 -10.298592,9.423714 -14.501459,-0.63294 -29.361376,3.881307 -40.542745,13.257581 -9.985946,8.340317 -16.928663,20.517048 -18.167367,33.545212 -0.369541,3.918847 -0.237421,7.896467 0.510563,11.763627 -10.48881,2.97219 -20.851178,7.10807 -29.568737,13.77848 -6.1650781,4.87983 -10.5812398,12.23783 -11.06650835,20.175 -0.0436615,0.6108 -0.0492412,1.22638 -0.03514,1.84175 -1.26612294,0.68001 -2.48859585,1.4187 -3.62251785,2.26756 -2.9008731,2.14024 -5.2865213,4.84422 -6.9587484,7.97264 -1.7319914,3.20814 -2.5879544,6.84009 -2.5879554,10.56421 0,3.75685 0.783643,7.37571 2.4840858,10.55285 l 0.01602,0.0274 0.013436,0.0274 c 1.6091164,2.92942 3.8144966,5.5104 6.4745402,7.65431 l 0.03514,0.0274 0.037207,0.0289 c 2.55545325,1.99176 5.430716,3.69619 8.5917237,5.13302 l 0.011886,0.004 0.00982,0.006 c 0.2381102,0.10702 0.5098423,0.18209 0.749825,0.28733 H -14.611571 v 5.64823 c 0,4.70054 1.002393,9.14018 3.171899,12.96872 2.0323297,3.58646 4.8345657,6.63636 8.2325724,8.95501 l 0.011886,0.008 0.013436,0.01 c 3.26238952,2.20021 6.8892017,3.84403 10.7853881,4.92012 l 0.023254,0.008 0.023771,0.006 c 3.8120345,1.01654 7.7086525,1.5291 11.6385665,1.5291 4.247805,0 8.215664,-0.47577 11.886613,-1.49758 3.65556,-1.01753 6.97988,-2.56104 9.837642,-4.68395 2.891963,-2.14831 5.237187,-4.91431 6.812504,-8.10752 0.340596,-0.69039 0.491256,-1.45812 0.756026,-2.18126 v 15.51327 H 73.695183 V 203.842 c 1.297991,3.76941 3.221518,7.20179 5.759855,10.13065 l 0.02532,0.0294 0.02739,0.031 c 2.654524,2.97629 5.948081,5.31617 9.673828,6.92412 l 0.0098,0.004 0.0098,0.004 c 3.860766,1.64887 8.14018,2.41433 12.687594,2.41433 4.54743,0 8.81834,-0.76402 12.66021,-2.42208 3.73237,-1.61081 7.02154,-3.96237 9.65212,-6.9572 2.60667,-2.96301 4.58183,-6.44272 5.88492,-10.27534 l 0.004,-0.008 0.002,-0.008 c 1.27166,-3.77759 1.87941,-7.82072 1.90221,-12.03699 v 10.90425 c 0,4.26062 0.67563,8.12935 2.5001,11.49025 1.73272,3.19183 4.48302,5.81175 7.77886,7.31842 l 0.045,0.0217 0.0434,0.0176 c 3.10943,1.35764 6.55488,1.95492 10.1968,1.95492 1.91061,0 3.72096,-0.12714 5.44773,-0.40824 1.4778,-0.24057 2.88282,-0.59216 4.24573,-1.01183 v 0.46302 h 25.06669 5.81256 25.16178 v -38.34546 c 0,-4.06239 -0.44691,-7.72038 -1.51929,-11.02 -1.0333,-3.1794 -2.61129,-6.03782 -4.83795,-8.32611 -2.10219,-2.22208 -4.74354,-3.90095 -7.64863,-4.8767 -2.70712,-0.94979 -5.61137,-1.39068 -8.63823,-1.40198 3.45957,-1.41153 6.61537,-3.5174 9.03821,-6.39858 4.17132,-5.11505 5.38585,-12.15316 4.24263,-18.54667 -1.06558,-6.69875 -3.94907,-13.37826 -9.19944,-17.84594 -2.11895,-1.75316 -4.52976,-3.18226 -7.15408,-4.02921 -2.43832,-11.22764 -12.27115,-20.525714 -23.71225,-22.014674 -3.19302,-0.481617 -6.4711,-0.437687 -9.64334,0.17105 -4.92601,-12.502161 -14.42683,-23.017425 -26.05474,-29.666392 0.25635,-4.677387 -0.65369,-9.714844 -3.8194,-13.334051 -2.90372,-3.18181 -7.63698,-4.77342 -11.82099,-3.51917 -2.22891,-1.528777 -4.94228,-2.358247 -7.64863,-2.279447 z"
           id="path15" />
        <!-- Body fur - tan -->
        <path
           style="fill:#dab37e;fill-opacity:0.992157;stroke:#412516;stroke-width:4.48814;stroke-linecap:round;stroke-miterlimit:42.7;stroke-opacity:0.992157;paint-order:markers fill stroke"
           d="m 50.707299,115.29806 c 0,0 -34.564068,7.05388 -40.207166,22.57244 -5.6431204,15.51855 3.84314,25.11318 71.009161,15.04829 15.375355,-2.30401 102.751576,-0.70539 102.751576,-0.70539 0,0 20.93649,0.53582 15.82211,-19.83955 -3.09593,-12.33394 -11.23946,-13.35957 -14.29615,-13.35957 -3.05668,0 -7.87445,6.39435 -7.87445,6.39435 l -0.47026,3.76208 c 0,0 -37.52098,2.08265 -49.14206,9.87543 -4.30074,2.88397 -77.592761,-23.74808 -77.592761,-23.74808 z"
           id="path16" />
        <path
           style="fill:#ffebba;fill-opacity:1;stroke:none;stroke-width:4.48814"
           d="m 41.094589,117.86736 c -7.622564,2.33788 -18.000797,6.28206 -24.742676,12.12122 20.457269,1.40022 27.983822,-11.51557 27.983822,-11.51557 z"
           id="path17" />
        <path
           style="fill:#b8865d;fill-opacity:0.992157;stroke:none;stroke-width:4.48814"
           d="m 12.779524,133.75184 c -7.1665756,16.52485 0.700889,28.17992 58.73543,20.55763 -52.904166,0.6511 -58.73543,-20.55763 -58.73543,-20.55763 z"
           id="path18" />
        <path
           style="fill:#b8865d;fill-opacity:0.992157;stroke:none;stroke-width:3"
           d="m 148.34747,131.02881 c -16.33218,10.96977 -25.04779,16.65187 -39.71127,19.17816 19.48155,1.46674 42.19169,-0.0321 58.06674,0.17053 23.63232,1.00948 28.30414,-0.96574 28.30414,-0.96574 0,0 13.92989,0.0475 -8.57718,-4.9326 -9.12083,-2.01816 7.80122,-17.99501 -38.08243,-13.45035 z"
           id="path19" />
        <path
           style="fill:none;fill-opacity:0.992157;stroke:#412516;stroke-width:4.48814;stroke-linecap:round;stroke-miterlimit:42.7;stroke-opacity:0.992157;paint-order:markers fill stroke"
           d="m 50.707299,115.29806 c 0,0 -34.564068,7.05388 -40.207166,22.57244 -5.6431204,15.51855 3.84314,25.11318 71.009161,15.04829 15.375355,-2.30401 102.751576,-0.70539 102.751576,-0.70539 0,0 20.93649,0.53582 15.82211,-19.83955 -3.09593,-12.33394 -11.23946,-13.35957 -14.29615,-13.35957 -3.05668,0 -7.87445,6.39435 -7.87445,6.39435 l -0.47026,3.76208 c 0,0 -37.52098,2.08265 -49.14206,9.87543 -4.30074,2.88397 -77.592761,-23.74808 -77.592761,-23.74808 z"
           id="path20" />
        <!-- Face -->
        <path
           style="fill:#dab37e;fill-opacity:0.992157;stroke:none;stroke-width:4.48814"
           d="m 121.06059,51.389802 c -0.56467,-0.08645 -1.40081,-1.535814 -4.12383,5.481745 -0.69238,-4.461798 -4.38534,-7.39545 -6.15534,-7.41578 -4.36637,-0.05014 -2.41635,3.104496 -1.93481,10.535832 -29.052482,-5.770415 -52.649943,10.219428 -58.438726,31.823704 -6.069348,22.650867 10.869573,41.337627 41.788013,49.622317 30.918603,8.28471 54.932483,0.57115 61.001763,-22.07988 5.33313,-19.903336 -5.33707,-43.370567 -28.97789,-54.394515 0.68759,-4.940294 1.46993,-12.864689 -3.15918,-13.573423 z"
           id="path21" />
        <path
           style="fill:none;fill-opacity:0.992157;stroke:#412516;stroke-width:4.48814;stroke-linecap:round;stroke-miterlimit:42.7;stroke-opacity:0.992157;paint-order:markers fill stroke"
           d="m 132.01529,141.99858 c 10.62694,-3.72418 18.14774,-11.31533 21.18237,-22.64084 5.33313,-19.903336 -5.33707,-43.370567 -28.97789,-54.394515 0.68759,-4.940294 1.46993,-11.277189 -3.15918,-11.985923 -0.56466,-0.08645 -1.62442,-1.133357 -4.12383,3.894245 -0.69238,-4.461798 -4.38533,-5.80795 -6.15534,-5.82828 -4.36637,-0.05014 -2.41635,1.516996 -1.93482,8.948332 C 79.794128,54.221184 56.196667,70.211027 50.407884,91.815303 44.338536,114.46617 59.496226,132.5592 90.414666,140.84387"
           id="path22" />
        <!-- Belly -->
        <path
           style="fill:#ffebbb;fill-opacity:0.996078;stroke:none;stroke-width:3.47837"
           d="m 61.435832,87.945349 c -7.762039,21.786111 11.555451,39.304671 33.063945,45.097631 21.945803,5.79835 45.088033,-1.81673 51.183613,-22.52357 4.3643,-33.218515 -32.11623,-30.973851 -36.96768,-30.530992 -3.92403,-2.769709 -34.444297,-23.00755 -47.279878,7.956931 z"
           id="path23" />
        <!-- Eye patches -->
        <path
           style="fill:#996e4b;fill-opacity:0.996078;stroke:none;stroke-width:3.36611"
           d="m 83.216471,82.458607 c -1.528717,-0.400791 -3.267883,-0.658508 -5.22928,-0.73847 -27.500978,-1.121145 -22.029058,27.035403 -22.029058,27.035403 0,0 11.801043,-5.9825 23.315225,-5.61067 13.836538,0.44683 18.72067,-16.811564 3.943113,-20.686263 z m 46.246169,12.391622 c -14.73509,-4.033192 -19.1345,13.355091 -6.9283,19.886391 10.15749,5.43507 17.3868,16.51674 17.3868,16.51674 0,0 18.81654,-21.64847 -5.56058,-34.428026 -1.7386,-0.911447 -3.37361,-1.557879 -4.89792,-1.975105 z"
           id="path24" />
        <!-- WordPress logo circle -->
        <g
           transform="translate(-1.5875,85.725002)"
           id="g28">
          <circle
             style="fill:#ffffff;fill-opacity:1;stroke:#412516;stroke-width:3.27632;stroke-linecap:round;stroke-miterlimit:42.7;stroke-opacity:0.992157"
             cx="164.5499"
             cy="28.062666"
             r="20.305807"
             id="circle24" />
          <path
             d="m 175.60928,27.235212 c 0,-2.024537 -0.72723,-3.426597 -1.35097,-4.517887 -0.83042,-1.34938 -1.60877,-2.492097 -1.60877,-3.841477 0,-1.50586 1.14213,-2.90761 2.75089,-2.90761 0.0726,0 0.14152,0.009 0.21228,0.0131 -2.91454,-2.670087 -6.79759,-4.300317 -11.06249,-4.300317 -5.72311,0 -10.75827,2.93629 -13.68746,7.383717 0.38434,0.0115 0.74656,0.0196 1.05422,0.0196 1.7135,0 4.3659,-0.20791 4.3659,-0.20791 0.88309,-0.0521 0.9872,1.24496 0.10505,1.34938 0,0 -0.88746,0.10443 -1.87498,0.15617 l 5.96563,17.743928 3.58505,-10.751714 -2.55234,-6.992834 c -0.88215,-0.0518 -1.71786,-0.15617 -1.71786,-0.15617 -0.88278,-0.0517 -0.77929,-1.40143 0.10349,-1.34938 0,0 2.70538,0.20791 4.31508,0.20791 1.7132,0 4.3659,-0.20791 4.3659,-0.20791 0.88372,-0.0521 0.98752,1.24496 0.10505,1.34938 0,0 -0.88933,0.10442 -1.87497,0.15617 l 5.92011,17.609578 1.63402,-5.460177 c 0.70822,-2.265797 1.24717,-3.893217 1.24717,-5.295587 z"
             style="fill:#21759b;stroke-width:0.311712"
             id="path25" />
          <path
             d="m 164.83762,29.494772 -4.91514,14.282111 c 1.46756,0.4314 3.01959,0.66736 4.62774,0.66736 1.9077,0 3.73716,-0.32978 5.44007,-0.92857 -0.044,-0.0701 -0.0838,-0.14463 -0.11659,-0.22568 z"
             style="fill:#21759b;stroke-width:0.311712"
             id="path26" />
          <path
             d="m 178.9247,20.202478 c 0.0704,0.521787 0.11034,1.081927 0.11034,1.684457 0,1.66234 -0.31046,3.53102 -1.24561,5.867577 l -5.00398,14.467261 c 4.87025,-2.839957 8.14608,-8.116224 8.14608,-14.159601 3.1e-4,-2.848067 -0.72724,-5.526257 -2.00683,-7.859694 z"
             style="fill:#21759b;stroke-width:0.311712"
             id="path27" />
          <path
             d="m 148.16828,28.061852 c 0,6.484137 3.76834,12.087694 9.23272,14.743131 l -7.81441,-21.409918 c -0.90896,2.03732 -1.41831,4.2919 -1.41831,6.666787 z"
             style="fill:#21759b;stroke-width:0.311712"
             id="path28" />
        </g>
        <!-- Eyes -->
        <path
           style="fill:#000000;fill-opacity:1;stroke:none;stroke-width:3.36611"
           d="m 80.776437,86.559639 c -3.354539,-0.898695 -6.802509,1.091989 -7.701484,4.446452 -0.899064,3.354677 1.091617,6.803018 4.446302,7.702056 3.354897,0.899128 6.803417,-1.091886 7.70219,-4.446877 0.898762,-3.354756 -1.092246,-6.802906 -4.447008,-7.701631 z m 48.748553,13.062134 c -3.35454,-0.898694 -6.80251,1.091987 -7.70149,4.446447 -0.89906,3.35468 1.09162,6.80303 4.4463,7.70206 3.3549,0.89913 6.80342,-1.09189 7.7022,-4.44687 0.89875,-3.35477 -1.09225,-6.80291 -4.44701,-7.701637 z"
           id="path29" />
        <!-- Forehead dark patch -->
        <ellipse
           style="fill:#3f2213;fill-opacity:0.996078;stroke:none;stroke-width:3.58661"
           cx="125.66172"
           cy="77.862366"
           rx="10.040057"
           ry="6.1734629"
           transform="rotate(15)"
           id="ellipse29" />
        <!-- Smile -->
        <path
           style="fill:#412516;fill-opacity:0.992157;stroke-width:1.12204;stroke-linecap:round;stroke-miterlimit:42.7;paint-order:markers fill stroke"
           d="m 81.777831,108.05721 a 1.4798302,1.4798302 0 0 0 -1.811706,1.04598 c -0.577691,2.15598 0.01762,4.4439 1.364777,6.4982 1.347127,2.05431 3.449732,3.95927 6.163184,5.62634 5.426881,3.33413 12.512884,5.23281 18.879764,5.05882 3.18344,-0.087 5.95684,-0.68544 8.15064,-1.79096 2.19379,-1.10552 3.85334,-2.78924 4.43103,-4.94522 a 1.4798302,1.4798302 0 0 0 -1.04599,-1.8117 1.4798302,1.4798302 0 0 0 -1.81381,1.04542 c -0.31329,1.16923 -1.2316,2.22584 -2.90251,3.06786 -1.6709,0.84202 -4.04898,1.39915 -6.90038,1.47708 -5.7028,0.15585 -12.388983,-1.6357 -17.249819,-4.62208 -2.43043,-1.49318 -4.211336,-3.16471 -5.23737,-4.72938 -1.026046,-1.56467 -1.293011,-2.93887 -0.979717,-4.1081 a 1.4798302,1.4798302 0 0 0 -1.048093,-1.81226 z"
           id="path30" />
        <!-- Arm line -->
        <path
           style="fill:none;fill-opacity:0.992157;stroke:#412516;stroke-width:4.48814;stroke-linecap:round;stroke-miterlimit:42.7;stroke-opacity:0.992157;paint-order:markers fill stroke"
           d="m 37.53863,130.90211 c 0,0 23.265968,-5.39018 47.756838,9.3494"
           id="path31" />
        <!-- Claws -->
        <path
           style="fill:#ffeab9;fill-opacity:0.992157;stroke:#412516;stroke-width:4.48814;stroke-linecap:round;stroke-miterlimit:42.7;stroke-opacity:0.992157;paint-order:markers fill stroke"
           d="m 86.90661,137.73527 c 15.41383,11.42492 7.152037,14.33377 5.222526,13.90955 -19.930234,-4.3819 -10.460917,-17.79232 -5.222526,-13.90955 z"
           id="path32" />
        <path
           style="fill:#ffeab9;fill-opacity:0.992157;stroke:#412516;stroke-width:4.48814;stroke-linecap:round;stroke-miterlimit:42.7;stroke-opacity:0.992157;paint-order:markers fill stroke"
           d="m 80.969169,141.89147 c 15.413829,11.42492 7.152034,14.33377 5.222525,13.90955 -19.930234,-4.3819 -10.460916,-17.79232 -5.222525,-13.90955 z"
           id="path33" />
        <path
           style="fill:#ffeab9;fill-opacity:0.992157;stroke:#412516;stroke-width:4.48814;stroke-linecap:round;stroke-miterlimit:42.7;stroke-opacity:0.992157;paint-order:markers fill stroke"
           d="m 73.388102,148.41999 c 17.845605,7.04625 10.618192,11.99428 8.644633,12.0839 -20.385253,0.92574 -14.709459,-14.47857 -8.644633,-12.0839 z"
           id="path34" />
        <!-- Sloth wordmark -->
        <path
           d="m 30.187019,198.56052 q 0,-1.86424 -0.573611,-3.34606 -0.52581,-1.52963 -2.007639,-2.77246 -1.481829,-1.29062 -4.158681,-2.53345 -2.676852,-1.24282 -6.931134,-2.58125 -4.732292,-1.52963 -8.9865749,-3.44166 -4.2064817,-1.91204 -7.45694485,-4.44549 -3.20266225,-2.58125 -5.06689845,-5.97512 -1.8164352,-3.39386 -1.8164352,-7.88715 0,-4.34988 1.9120371,-7.88715 1.9120371,-3.58507 5.35370397,-6.11852 3.44166683,-2.58125 8.12615783,-3.96748 4.7322915,-1.38623 10.3728015,-1.38623 7.695949,0 13.432061,2.77246 5.736111,2.77245 8.890972,7.60035 3.202663,4.82789 3.202663,11.04201 H 30.23482 q 0,-3.05926 -1.290625,-5.3537 -1.242824,-2.34225 -3.824074,-3.68068 -2.533449,-1.33842 -6.405325,-1.33842 -3.728472,0 -6.21412,1.14722 -2.485649,1.09942 -3.7284728,3.01146 -1.2428241,1.86424 -1.2428241,4.20648 0,1.76864 0.8604167,3.20266 0.9082176,1.43403 2.6768522,2.67686 1.768634,1.24282 4.349884,2.34224 2.58125,1.09942 5.975116,2.15104 5.688311,1.72084 9.990394,3.87188 4.349885,2.15104 7.265741,4.82789 2.915857,2.67685 4.397686,6.07072 1.481829,3.39387 1.481829,7.69595 0,4.54109 -1.768635,8.12616 -1.768634,3.58507 -5.114699,6.07071 -3.346065,2.48565 -7.982755,3.77628 -4.63669,1.29062 -10.372802,1.29062 -5.1625,0 -10.1815973,-1.33842 -5.0190975,-1.38623 -9.12997731,-4.15868 -4.06307889,-2.77246 -6.50092629,-7.07454 -2.4378473,-4.30208 -2.4378473,-10.1816 H 5.4261382 q 0,3.25046 1.0038195,5.49711 1.0038195,2.24664 2.8202548,3.63287 1.8642365,1.38623 4.3976855,2.00764 2.58125,0.62141 5.640509,0.62141 3.728473,0 6.118519,-1.05162 2.437848,-1.05162 3.58507,-2.91586 1.195023,-1.86423 1.195023,-4.20648 z m 37.858433,-55.21007 v 73.42222 H 54.230984 v -73.42222 z m 9.32128,48.08773 v -1.00382 q 0,-5.68831 1.625232,-10.4684 1.625232,-4.82789 4.732292,-8.36516 3.10706,-3.53727 7.648148,-5.49711 4.541089,-2.00764 10.420606,-2.00764 5.87951,0 10.4684,2.00764 4.58889,1.95984 7.69595,5.49711 3.15486,3.53727 4.78009,8.36516 1.62523,4.78009 1.62523,10.4684 v 1.00382 q 0,5.64051 -1.62523,10.46841 -1.62523,4.78009 -4.78009,8.36516 -3.10706,3.53727 -7.64815,5.49711 -4.54109,1.95983 -10.4206,1.95983 -5.879516,0 -10.468405,-1.95983 -4.541088,-1.95984 -7.695949,-5.49711 -3.10706,-3.58507 -4.732292,-8.36516 -1.625232,-4.8279 -1.625232,-10.46841 z M 91.1334,190.43436 v 1.00382 q 0,3.25047 0.573611,6.07072 0.573611,2.82026 1.816435,4.9713 1.290625,2.10324 3.346065,3.29826 2.05544,1.19502 5.019099,1.19502 2.86805,0 4.92349,-1.19502 2.05544,-1.19502 3.29827,-3.29826 1.24282,-2.15104 1.81643,-4.9713 0.62142,-2.82025 0.62142,-6.07072 v -1.00382 q 0,-3.15486 -0.62142,-5.92731 -0.57361,-2.82026 -1.86423,-4.9713 -1.24283,-2.19884 -3.29827,-3.44167 -2.05544,-1.24282 -4.97129,-1.24282 -2.91586,0 -4.9713,1.24282 -2.007639,1.24283 -3.298264,3.44167 -1.242824,2.15104 -1.816435,4.9713 -0.573611,2.77245 -0.573611,5.92731 z m 69.16805,-25.38229 v 9.75139 h -30.11459 v -9.75139 z m -22.65764,-12.76285 h 13.76667 v 48.90035 q 0,2.24665 0.57361,3.44167 0.62141,1.19502 1.81643,1.67303 1.19503,0.43021 3.01146,0.43021 1.29063,0 2.29445,-0.0956 1.05162,-0.14341 1.76863,-0.28681 l 0.0478,10.1338 q -1.76863,0.57361 -3.82407,0.90822 -2.05544,0.3346 -4.54109,0.3346 -4.54109,0 -7.93495,-1.48183 -3.34607,-1.52963 -5.16251,-4.87569 -1.81643,-3.34607 -1.81643,-8.79537 z m 44.02475,-8.93877 v 73.42222 H 167.9019 v -73.42222 z m -1.95983,45.74549 h -3.77628 q 0.0478,-5.40151 1.43403,-9.9426 1.38623,-4.58889 3.96748,-7.93495 2.58125,-3.39387 6.16632,-5.2581 3.63287,-1.86424 8.03055,-1.86424 3.82408,0 6.93114,1.09942 3.15486,1.05162 5.4015,3.44167 2.29445,2.34225 3.53727,6.16632 1.24283,3.82407 1.24283,9.27338 v 32.69583 H 198.7813 v -32.79143 q 0,-3.44167 -1.00382,-5.40151 -0.95602,-2.00764 -2.82026,-2.82025 -1.81643,-0.86042 -4.49328,-0.86042 -2.96366,0 -5.0669,1.09942 -2.05544,1.09942 -3.29827,3.05926 -1.24282,1.91204 -1.81643,4.49329 -0.57361,2.58125 -0.57361,5.54491 z"
           style="font-weight:bold;font-size:97.8963px;fill:#21759b;stroke:none"
           id="path35" />
        <!-- Right hand fingers -->
        <path
           style="fill:#ffeab9;fill-opacity:0.992157;stroke:#412516;stroke-width:4.48814;stroke-linecap:round;stroke-miterlimit:42.7;stroke-opacity:0.992157;paint-order:markers fill stroke"
           d="m 175.71989,127.63958 c 0,0 1.94446,-7.50007 7.22228,-8.79638 5.27782,-1.2963 13.42603,7.96303 1.85186,9.90751 -6.03568,1.01399 -9.07414,-1.11113 -9.07414,-1.11113 z"
           id="path36" />
        <path
           style="fill:#ffeab9;fill-opacity:0.992157;stroke:#412516;stroke-width:4.48814;stroke-linecap:round;stroke-miterlimit:42.7;stroke-opacity:0.992157;paint-order:markers fill stroke"
           d="m 176.18838,134.24435 c 0,0 1.18304,-5.8546 9.12874,-7.08875 5.37029,-0.83414 10.88972,8.37849 1.85187,9.9075 -9.44871,1.59852 -10.98061,-2.81875 -10.98061,-2.81875 z"
           id="path37" />
        <path
           style="fill:#ffeab9;fill-opacity:0.992157;stroke:#412516;stroke-width:4.48814;stroke-linecap:round;stroke-miterlimit:42.7;stroke-opacity:0.992157;paint-order:markers fill stroke"
           d="m 177.30907,142.461 c 0,0 4.3839,-5.46254 9.81811,-5.39085 5.43421,0.0717 8.41125,11.08066 -0.69746,10.05493 -6.08182,-0.68488 -9.12065,-4.66408 -9.12065,-4.66408 z"
           id="path38" />
      </g>
    </g>
  </g>
  <!-- Bottom banner gradient -->
  <rect
     x="0"
     y="720"
     width="1200"
     height="180"
     fill="url(#banner)"
     id="rect40" />
  <!-- Accent line -->
  <rect
     x="0"
     y="720"
     width="4"
     height="180"
     fill="#21759b"
     id="rect41" />
  <!-- Theme name -->
  <text
     x="60"
     y="810"
     font-family="Georgia, 'Times New Roman', serif"
     font-size="64"
     font-weight="bold"
     fill="#ffffff"
     letter-spacing="-1"
     id="text41">{{themeName}}</text>
  <!-- Author -->
  <text
     x="62"
     y="864"
     font-family="Georgia, 'Times New Roman', serif"
     font-size="26"
     fill="#21759b"
     letter-spacing="1"
     id="text42">{{authorName}}</text>
  <!-- Sloth framework badge top right -->
  <rect
     x="1060"
     y="30"
     width="110"
     height="34"
     rx="17"
     fill="#21759b"
     fill-opacity="0.85"
     id="rect42" />
  <text
     x="1115"
     y="53"
     font-family="Georgia, serif"
     font-size="14"
     fill="#ffffff"
     text-anchor="middle"
     letter-spacing="1"
     id="text43">Sloth WP</text>
</svg>
